<svg xmlns="http://www.w3.org/2000/svg" width="64" height="64" fill="none" viewBox="0 0 64 64"><style>@media (prefers-color-scheme:dark){.bg{fill:#fafafa}.fg{fill:#0a0a0a}}</style><path fill="#0A0A0A" d="M49.75 0h-35.5C6.38 0 0 6.38 0 14.25v35.5C0 57.62 6.38 64 14.25 64h35.5C57.62 64 64 57.62 64 49.75v-35.5C64 6.38 57.62 0 49.75 0Z" class="bg"/><path fill="#FAFAFA" d="M42.67 38.187a5 5 0 1 1 8.659 5 5 5 0 0 1-8.66-5Zm-6.328 4.976a5 5 0 0 1-8.66-5l1.44-2.493h11.546l-4.326 7.492Zm1.339-22.32a5 5 0 0 1 8.66 5L42.4 32.671l-11.922.65 7.204-12.478ZM21.33 43.132a5 5 0 1 1-8.659-5l1.422-2.462H25.64l-4.308 7.462Zm1.34-22.319a5 5 0 0 1 8.66 5l-4.449 7.705-11.922.651 7.711-13.356Z" class="fg"/></svg>